<svg width="825" height="200" viewBox="0 0 825 200" fill="none" xmlns="http://www.w3.org/2000/svg">
<rect x="225" width="150" height="50" fill="white"/>
<rect x="225" y="150" width="150" height="50" fill="white"/>
<rect x="450" width="150" height="50" fill="white"/>
<rect x="450" y="150" width="150" height="50" fill="white"/>
<rect x="675" y="75" width="150" height="50" fill="white"/>
<rect y="75" width="150" height="50" fill="white"/>
<path d="M450 25L435 16.3397V33.6603L450 25ZM376 26.5H436.5V23.5H376V26.5Z" fill="black"/>
<path d="M450.013 176L435.013 167.34V184.66L450.013 176ZM374.987 177.5H436.513V174.5H374.987V177.5Z" fill="black"/>
<path d="M675 100L658.3 104.594L670.628 116.76L675 100ZM601.068 177.054L666.585 110.663L664.45 108.555L598.932 174.946L601.068 177.054Z" fill="black"/>
<path d="M675 100L670.738 83.2121L658.33 95.2974L675 100ZM598.925 24.0466L664.506 91.3759L666.655 89.2827L601.075 21.9534L598.925 24.0466Z" fill="black"/>
<path d="M225 25L208.211 29.2564L220.291 41.6682L225 25ZM151.046 99.0749L216.372 35.491L214.28 33.3412L148.954 96.9251L151.046 99.0749Z" fill="black"/>
<path d="M225 176L220.846 159.185L208.361 171.19L225 176ZM148.919 99.0397L214.562 167.308L216.724 165.229L151.081 96.9603L148.919 99.0397Z" fill="black"/>
<path d="M525 150L514.81 135.994L507.776 151.822L525 150ZM299.391 51.3707L512.054 145.888L513.273 143.146L300.609 48.6293L299.391 51.3707Z" fill="black"/>
</svg>
